solid 
 facet normal -1.000000e+00  0.000000e+00  0.000000e+00
   outer loop
     vertex  0.000000e+00  0.000000e+00  3.000000e+00
     vertex  0.000000e+00  4.500000e-01  0.000000e+00
     vertex  0.000000e+00  0.000000e+00  0.000000e+00
   endloop
 endfacet
 facet normal -1.000000e+00  0.000000e+00  0.000000e+00
   outer loop
     vertex  0.000000e+00  0.000000e+00  3.000000e+00
     vertex  0.000000e+00  4.500000e-01  3.000000e+00
     vertex  0.000000e+00  4.500000e-01  0.000000e+00
   endloop
 endfacet
 facet normal  0.000000e+00 -1.000000e+00  0.000000e+00
   outer loop
     vertex  0.000000e+00  0.000000e+00  3.000000e+00
     vertex  0.000000e+00  0.000000e+00  0.000000e+00
     vertex  1.400000e+00  0.000000e+00  1.000000e+00
   endloop
 endfacet
 facet normal -0.000000e+00 -1.000000e+00 -0.000000e+00
   outer loop
     vertex  1.400000e+00  0.000000e+00  2.450000e+00
     vertex  0.000000e+00  0.000000e+00  3.000000e+00
     vertex  1.400000e+00  0.000000e+00  1.000000e+00
   endloop
 endfacet
 facet normal  0.000000e+00 -1.000000e+00  0.000000e+00
   outer loop
     vertex  4.000000e+00  0.000000e+00  0.000000e+00
     vertex  2.600000e+00  0.000000e+00  1.000000e+00
     vertex  1.400000e+00  0.000000e+00  1.000000e+00
   endloop
 endfacet
 facet normal  0.000000e+00 -1.000000e+00  0.000000e+00
   outer loop
     vertex  4.000000e+00  0.000000e+00  0.000000e+00
     vertex  1.400000e+00  0.000000e+00  1.000000e+00
     vertex  0.000000e+00  0.000000e+00  0.000000e+00
   endloop
 endfacet
 facet normal  0.000000e+00 -1.000000e+00  0.000000e+00
   outer loop
     vertex  2.600000e+00  0.000000e+00  2.450000e+00
     vertex  0.000000e+00  0.000000e+00  3.000000e+00
     vertex  1.400000e+00  0.000000e+00  2.450000e+00
   endloop
 endfacet
 facet normal  0.000000e+00 -1.000000e+00  0.000000e+00
   outer loop
     vertex  4.000000e+00  0.000000e+00  3.000000e+00
     vertex  2.600000e+00  0.000000e+00  2.450000e+00
     vertex  2.600000e+00  0.000000e+00  1.000000e+00
   endloop
 endfacet
 facet normal  0.000000e+00 -1.000000e+00 -0.000000e+00
   outer loop
     vertex  4.000000e+00  0.000000e+00  3.000000e+00
     vertex  2.600000e+00  0.000000e+00  1.000000e+00
     vertex  4.000000e+00  0.000000e+00  0.000000e+00
   endloop
 endfacet
 facet normal -0.000000e+00 -1.000000e+00  0.000000e+00
   outer loop
     vertex  4.000000e+00  0.000000e+00  3.000000e+00
     vertex  0.000000e+00  0.000000e+00  3.000000e+00
     vertex  2.600000e+00  0.000000e+00  2.450000e+00
   endloop
 endfacet
 facet normal  0.000000e+00  0.000000e+00  1.000000e+00
   outer loop
     vertex  4.000000e+00  4.500000e-01  3.000000e+00
     vertex  0.000000e+00  4.500000e-01  3.000000e+00
     vertex  0.000000e+00  0.000000e+00  3.000000e+00
   endloop
 endfacet
 facet normal  0.000000e+00  0.000000e+00  1.000000e+00
   outer loop
     vertex  4.000000e+00  4.500000e-01  3.000000e+00
     vertex  0.000000e+00  0.000000e+00  3.000000e+00
     vertex  4.000000e+00  0.000000e+00  3.000000e+00
   endloop
 endfacet
 facet normal  0.000000e+00  1.000000e+00  0.000000e+00
   outer loop
     vertex  0.000000e+00  4.500000e-01  3.000000e+00
     vertex  1.400000e+00  4.500000e-01  1.000000e+00
     vertex  0.000000e+00  4.500000e-01  0.000000e+00
   endloop
 endfacet
 facet normal  0.000000e+00  1.000000e+00  0.000000e+00
   outer loop
     vertex  1.400000e+00  4.500000e-01  2.450000e+00
     vertex  1.400000e+00  4.500000e-01  1.000000e+00
     vertex  0.000000e+00  4.500000e-01  3.000000e+00
   endloop
 endfacet
 facet normal  0.000000e+00  1.000000e+00  0.000000e+00
   outer loop
     vertex  4.000000e+00  4.500000e-01  0.000000e+00
     vertex  1.400000e+00  4.500000e-01  1.000000e+00
     vertex  2.600000e+00  4.500000e-01  1.000000e+00
   endloop
 endfacet
 facet normal  0.000000e+00  1.000000e+00  0.000000e+00
   outer loop
     vertex  4.000000e+00  4.500000e-01  0.000000e+00
     vertex  0.000000e+00  4.500000e-01  0.000000e+00
     vertex  1.400000e+00  4.500000e-01  1.000000e+00
   endloop
 endfacet
 facet normal  0.000000e+00  1.000000e+00  0.000000e+00
   outer loop
     vertex  2.600000e+00  4.500000e-01  2.450000e+00
     vertex  1.400000e+00  4.500000e-01  2.450000e+00
     vertex  0.000000e+00  4.500000e-01  3.000000e+00
   endloop
 endfacet
 facet normal  0.000000e+00  1.000000e+00  0.000000e+00
   outer loop
     vertex  4.000000e+00  4.500000e-01  3.000000e+00
     vertex  2.600000e+00  4.500000e-01  1.000000e+00
     vertex  2.600000e+00  4.500000e-01  2.450000e+00
   endloop
 endfacet
 facet normal  0.000000e+00  1.000000e+00  0.000000e+00
   outer loop
     vertex  4.000000e+00  4.500000e-01  3.000000e+00
     vertex  4.000000e+00  4.500000e-01  0.000000e+00
     vertex  2.600000e+00  4.500000e-01  1.000000e+00
   endloop
 endfacet
 facet normal  0.000000e+00  1.000000e+00  0.000000e+00
   outer loop
     vertex  4.000000e+00  4.500000e-01  3.000000e+00
     vertex  2.600000e+00  4.500000e-01  2.450000e+00
     vertex  0.000000e+00  4.500000e-01  3.000000e+00
   endloop
 endfacet
 facet normal -0.000000e+00  0.000000e+00 -1.000000e+00
   outer loop
     vertex  4.000000e+00  4.500000e-01  0.000000e+00
     vertex  0.000000e+00  0.000000e+00  0.000000e+00
     vertex  0.000000e+00  4.500000e-01  0.000000e+00
   endloop
 endfacet
 facet normal  0.000000e+00 -0.000000e+00 -1.000000e+00
   outer loop
     vertex  4.000000e+00  4.500000e-01  0.000000e+00
     vertex  4.000000e+00  0.000000e+00  0.000000e+00
     vertex  0.000000e+00  0.000000e+00  0.000000e+00
   endloop
 endfacet
 facet normal  1.000000e+00  0.000000e+00  0.000000e+00
   outer loop
     vertex  4.000000e+00  0.000000e+00  3.000000e+00
     vertex  4.000000e+00  0.000000e+00  0.000000e+00
     vertex  4.000000e+00  4.500000e-01  0.000000e+00
   endloop
 endfacet
 facet normal  1.000000e+00 -0.000000e+00  0.000000e+00
   outer loop
     vertex  4.000000e+00  0.000000e+00  3.000000e+00
     vertex  4.000000e+00  4.500000e-01  0.000000e+00
     vertex  4.000000e+00  4.500000e-01  3.000000e+00
   endloop
 endfacet
 facet normal -0.000000e+00  0.000000e+00 -1.000000e+00
   outer loop
     vertex  2.600000e+00  4.500000e-01  2.450000e+00
     vertex  1.400000e+00  0.000000e+00  2.450000e+00
     vertex  1.400000e+00  4.500000e-01  2.450000e+00
   endloop
 endfacet
 facet normal  0.000000e+00 -0.000000e+00 -1.000000e+00
   outer loop
     vertex  2.600000e+00  4.500000e-01  2.450000e+00
     vertex  2.600000e+00  0.000000e+00  2.450000e+00
     vertex  1.400000e+00  0.000000e+00  2.450000e+00
   endloop
 endfacet
 facet normal -1.000000e+00  0.000000e+00  0.000000e+00
   outer loop
     vertex  2.600000e+00  0.000000e+00  2.450000e+00
     vertex  2.600000e+00  4.500000e-01  1.000000e+00
     vertex  2.600000e+00  0.000000e+00  1.000000e+00
   endloop
 endfacet
 facet normal -1.000000e+00  0.000000e+00  0.000000e+00
   outer loop
     vertex  2.600000e+00  0.000000e+00  2.450000e+00
     vertex  2.600000e+00  4.500000e-01  2.450000e+00
     vertex  2.600000e+00  4.500000e-01  1.000000e+00
   endloop
 endfacet
 facet normal  0.000000e+00  0.000000e+00  1.000000e+00
   outer loop
     vertex  2.600000e+00  4.500000e-01  1.000000e+00
     vertex  1.400000e+00  4.500000e-01  1.000000e+00
     vertex  1.400000e+00  0.000000e+00  1.000000e+00
   endloop
 endfacet
 facet normal  0.000000e+00  0.000000e+00  1.000000e+00
   outer loop
     vertex  2.600000e+00  4.500000e-01  1.000000e+00
     vertex  1.400000e+00  0.000000e+00  1.000000e+00
     vertex  2.600000e+00  0.000000e+00  1.000000e+00
   endloop
 endfacet
 facet normal  1.000000e+00  0.000000e+00  0.000000e+00
   outer loop
     vertex  1.400000e+00  0.000000e+00  2.450000e+00
     vertex  1.400000e+00  0.000000e+00  1.000000e+00
     vertex  1.400000e+00  4.500000e-01  1.000000e+00
   endloop
 endfacet
 facet normal  1.000000e+00 -0.000000e+00  0.000000e+00
   outer loop
     vertex  1.400000e+00  0.000000e+00  2.450000e+00
     vertex  1.400000e+00  4.500000e-01  1.000000e+00
     vertex  1.400000e+00  4.500000e-01  2.450000e+00
   endloop
 endfacet
endsolid
